<?xml version="1.0" encoding="UTF-8"?>
<svg version="1.1" xmlns="http://www.w3.org/2000/svg" width="800" height="800">
<path d="M0 0 C264 0 528 0 800 0 C800 264 800 528 800 800 C536 800 272 800 0 800 C0 536 0 272 0 0 Z " fill="#21409A" transform="translate(0,0)"/>
<path d="M0 0 C3.65520758 2.91754602 6.86840357 5.95892117 10.01953125 9.41015625 C13.74914286 8.09801756 16.94058422 6.2844699 20.28222656 4.1862793 C47.86054161 -12.98283132 80.4189753 -22.90412794 112.97436523 -16.55615234 C129.96206432 -12.43072256 145.00908876 -1.83544832 154.5 12.828125 C159.90361122 22.01009676 163.55334355 31.02974801 166.01953125 41.41015625 C166.19758301 42.14717773 166.37563477 42.88419922 166.55908203 43.64355469 C175.94660154 85.67346778 158.10092313 132.77066052 136.32519531 168.1640625 C129.44754645 178.9766846 122.14738658 189.49844395 114.01953125 199.41015625 C113.55820801 199.97299316 113.09688477 200.53583008 112.62158203 201.11572266 C100.55304747 215.72036955 87.25095401 230.0770132 72.01953125 241.41015625 C71.35985352 241.90322266 70.70017578 242.39628906 70.02050781 242.90429688 C39.60987012 265.54108944 8.87030494 278.52901093 -28.98046875 282.41015625 C-29.78508545 282.49845703 -30.58970215 282.58675781 -31.41870117 282.67773438 C-42.24736694 283.70134411 -53.10278709 283.56060081 -63.96948242 283.54052734 C-67.37878978 283.53521727 -70.78796253 283.5404707 -74.19726562 283.546875 C-84.7928206 283.55066744 -95.37076744 283.44355235 -105.95703125 282.9765625 C-106.81223862 282.93939117 -107.66744598 282.90221985 -108.54856873 282.86392212 C-152.86602087 280.66253945 -195.88969503 264.37985491 -227.98046875 233.41015625 C-228.73199219 232.71019531 -229.48351562 232.01023437 -230.2578125 231.2890625 C-244.54052856 217.66428346 -253.64914862 198.88322643 -254.48046875 179.16015625 C-254.15659476 164.90970056 -249.00024351 150.70525903 -239.98046875 139.66015625 C-237.18502005 136.12601385 -235.66264043 132.34554518 -234.10546875 128.16015625 C-229.39064708 115.63442078 -221.39605486 106.25389398 -212.2890625 96.62109375 C-209.32409457 93.35421002 -207.27866126 90.17147658 -205.29296875 86.22265625 C-198.39522463 73.22923128 -187.1132005 63.91632857 -173.765625 57.98046875 C-170.49855124 56.13844399 -169.51351628 54.60875633 -167.73046875 51.34765625 C-159.12124085 37.1302385 -146.02837378 28.51109345 -130.1796875 24.0859375 C-125.14122604 23.02164711 -120.12041056 22.59537938 -114.98046875 22.41015625 C-114.73296875 21.69214844 -114.48546875 20.97414063 -114.23046875 20.234375 C-108.49851294 7.28373735 -95.03573366 -3.78809977 -82.98046875 -10.58984375 C-82.17996094 -11.06292969 -81.37945312 -11.53601563 -80.5546875 -12.0234375 C-53.64746638 -26.86424522 -22.88791969 -17.21453052 0 0 Z " fill="#FBFBFC" transform="translate(442.98046875,267.58984375)"/>
<path d="M0 0 C20.41779811 19.54821557 28.73989106 51.2771108 34 78 C34.17934082 78.87527344 34.35868164 79.75054687 34.54345703 80.65234375 C39.14312797 103.78316165 39.02325831 129.96377701 34 153 C33.85546387 153.69109863 33.71092773 154.38219727 33.56201172 155.09423828 C27.85570462 181.83109913 16.2586702 210.02461385 -7.3125 225.75 C-21.42281648 234.25972803 -37.23067482 237.60482908 -53.5234375 234.28125 C-56.45364356 233.34719974 -59.20331383 232.27656546 -62 231 C-62.79664063 230.649375 -63.59328125 230.29875 -64.4140625 229.9375 C-77.75376787 223.33640868 -85.25363348 210.62234032 -90.17578125 197.05859375 C-92.60733386 188.03534403 -93.35873624 179.32765823 -93.3125 170 C-93.30758545 168.81664062 -93.3026709 167.63328125 -93.29760742 166.4140625 C-93.16472472 156.36131564 -92.15362951 146.81001979 -90 137 C-89.8443457 136.25975586 -89.68869141 135.51951172 -89.52832031 134.75683594 C-82.06164986 100.19554096 -64.17437213 68.23435266 -42 41 C-41.56284668 40.45988281 -41.12569336 39.91976562 -40.67529297 39.36328125 C-28.70124266 24.68127315 -15.49702164 10.96919618 0 0 Z " fill="#21409A" transform="translate(452,298)"/>
<path d="M0 0 C13.28377662 9.84727768 20.96660433 24.85623084 23.984375 40.95703125 C26.28497885 58.85110181 24.64564909 76.82979319 20.45703125 94.2890625 C20.20880615 95.33054443 20.20880615 95.33054443 19.95556641 96.39306641 C17.90853384 104.71265748 14.92709922 112.4747192 11.45703125 120.2890625 C10.83490062 121.76258349 10.2138921 123.23657852 9.59375 124.7109375 C-6.71935881 162.89390382 -34.09863503 199.54328686 -67.88232422 224.08154297 C-69.58702926 225.32110062 -71.27013134 226.58663246 -72.953125 227.85546875 C-79.16633332 232.47921091 -85.56734772 236.63356654 -92.29296875 240.4765625 C-92.98503418 240.87568848 -93.67709961 241.27481445 -94.39013672 241.68603516 C-96.07218495 242.62078723 -97.80435369 243.46428048 -99.54296875 244.2890625 C-100.20296875 243.9590625 -100.86296875 243.6290625 -101.54296875 243.2890625 C-100.92550781 242.49886719 -100.30804688 241.70867187 -99.671875 240.89453125 C-80.66816876 215.876324 -70.41606174 182.99435563 -70.375 151.6640625 C-70.3716716 150.75889893 -70.3683432 149.85373535 -70.36491394 148.92114258 C-70.35987522 147.01172387 -70.35750466 145.10229644 -70.35766602 143.19287109 C-70.35549597 140.32504051 -70.33735281 137.45760565 -70.31835938 134.58984375 C-70.26877024 118.42929545 -71.92778249 103.08171826 -75.54296875 87.2890625 C-75.70635742 86.56879883 -75.86974609 85.84853516 -76.03808594 85.10644531 C-81.50454996 61.53295076 -91.00016032 37.22561738 -106.1796875 18.15234375 C-107.54296875 16.2890625 -107.54296875 16.2890625 -107.54296875 14.2890625 C-105.42532325 12.80331995 -103.33174547 11.47050199 -101.10546875 10.1640625 C-100.1002417 9.57008667 -100.1002417 9.57008667 -99.07470703 8.96411133 C-87.47132163 2.23500552 -75.55419121 -3.32590401 -62.54296875 -6.7109375 C-61.8989209 -6.89140625 -61.25487305 -7.071875 -60.59130859 -7.2578125 C-39.79115384 -13.07301515 -18.37239283 -12.36114909 0 0 Z " fill="#22409A" transform="translate(571.54296875,274.7109375)"/>
<path d="M0 0 C18.09625657 -0.93186703 34.40570473 8.00225448 47.9140625 19.19140625 C49.26754347 20.50428279 50.60872473 21.8306532 51.9140625 23.19140625 C50.3707796 27.17145162 47.91096007 29.01486848 44.6015625 31.62890625 C29.76678946 43.77172961 16.21339192 57.70858809 4.9140625 73.19140625 C4.18960938 74.10921875 3.46515625 75.02703125 2.71875 75.97265625 C-29.87986197 117.56801776 -46.62043765 167.64658009 -45.0859375 220.19140625 C-59.09115709 201.99761809 -66.07957004 173.60730399 -69.0859375 151.19140625 C-69.44514037 149.37570954 -69.81821361 147.56264868 -70.2109375 145.75390625 C-72.33903268 135.17978521 -72.3278177 124.49804786 -72.3359375 113.75390625 C-72.33661224 112.95149506 -72.33728699 112.14908386 -72.33798218 111.32235718 C-72.32202259 99.37399321 -71.93079729 87.85052875 -69.0859375 76.19140625 C-68.92496582 75.4864502 -68.76399414 74.78149414 -68.59814453 74.05517578 C-66.03808182 63.11404323 -61.6380667 53.68441859 -56.08154297 43.95507812 C-54.87371064 41.81545559 -53.76940223 39.62748694 -52.6484375 37.44140625 C-42.8694771 20.16077761 -28.29500536 6.87086749 -9.0859375 1.19140625 C-6.0226106 0.54649532 -3.10524107 0.28493785 0 0 Z " fill="#22419A" transform="translate(390.0859375,261.80859375)"/>
<path d="M0 0 C-1.6345832 5.07581099 -3.40959445 10.00543343 -5.4375 14.9375 C-24.25241052 63.6182474 -13.61651926 123.1405361 6.77734375 169.46875 C11.28006596 179.28993352 16.2414909 188.58322687 22.41796875 197.453125 C24 200 24 200 24 203 C-12.10349918 170.31747536 -42.55539871 125.24976204 -45.38671875 75.01171875 C-45.49829689 70.65646728 -45.32208136 66.34296967 -45 62 C-44.95456055 61.3203418 -44.90912109 60.64068359 -44.86230469 59.94042969 C-43.43465021 40.68091025 -37.35391107 23.45114937 -23 10 C-16.50920244 4.95160189 -8.51714726 0 0 0 Z " fill="#23429B" transform="translate(319,304)"/>
<path d="M0 0 C1.11487503 3.34462509 0.84461704 4.42625176 0.08203125 7.78125 C-7.88739941 48.65563402 7.66849267 93.19667874 30.1875 126.875 C32.08205559 129.61605916 34.02678644 132.31518113 36 135 C36.42877441 135.59409668 36.85754883 136.18819336 37.29931641 136.80029297 C45.77836387 148.50157696 55.69286494 158.9036927 66 169 C67.33450756 170.33215807 68.66812785 171.66520708 70 173 C65.00195022 171.36016834 61.051547 168.46124429 56.8125 165.4375 C56.05654541 164.9010083 55.30059082 164.3645166 54.52172852 163.81176758 C48.63680957 159.57818071 43.26396141 154.98334582 38 150 C36.65103627 148.8273213 35.29704589 147.66039366 33.9375 146.5 C25.76408 139.34415438 18.7277421 131.51497646 12 123 C11.20722656 122.03578125 10.41445313 121.0715625 9.59765625 120.078125 C-8.06169325 98.09460619 -24.03880884 68.02522399 -22 39 C-19.71042619 23.00903958 -13.08560618 9.90635679 0 0 Z " fill="#25449C" transform="translate(264,343)"/>
<path d="M0 0 C0.33 0 0.66 0 1 0 C1.14695313 1.4540625 1.14695313 1.4540625 1.296875 2.9375 C4.32023365 30.83677242 14.57801168 56.2169253 31 79 C31.67289062 79.94617188 32.34578125 80.89234375 33.0390625 81.8671875 C44.81287669 98.00801641 58.26623417 112.6602023 74 125 C74.81186768 125.64316162 74.81186768 125.64316162 75.64013672 126.29931641 C81.55204086 130.97822934 87.38027192 135.36580255 94 139 C88.38417222 140.87194259 82.73291506 136.4346373 77.625 133.9375 C76.97605774 133.62309967 76.32711548 133.30869934 75.6585083 132.98477173 C59.16448045 124.95533968 43.75308038 115.19699142 30 103 C29.13246094 102.24074219 28.26492188 101.48148437 27.37109375 100.69921875 C24.8855759 98.49522006 22.43768513 96.25664806 20 94 C19.40832031 93.4740625 18.81664062 92.948125 18.20703125 92.40625 C4.03450923 79.20998247 -9.2795065 58.20734202 -10.375 38.68359375 C-10.69219103 28.89717101 -10.7236757 19.81752798 -6 11 C-5.47148437 9.9790625 -4.94296875 8.958125 -4.3984375 7.90625 C-2.9782685 5.24090913 -1.51561169 2.61190415 0 0 Z " fill="#25439B" transform="translate(229,385)"/>
<path d="M0 0 C0.66 0 1.32 0 2 0 C2.268125 0.969375 2.53625 1.93875 2.8125 2.9375 C8.28072176 21.9445983 17.36274882 38.32030111 30.95703125 52.78125 C33 55 33 55 35.04296875 57.58203125 C37.97383167 61.20319722 41.45098436 64.00149174 45 67 C45.84304687 67.7425 46.68609375 68.485 47.5546875 69.25 C64.33366644 83.75149981 83.7154887 95.14289318 104 104 C104 104.33 104 104.66 104 105 C97.79684559 104.31076062 91.98712453 102.73290958 86 101 C85.02160156 100.73445312 84.04320312 100.46890625 83.03515625 100.1953125 C53.41691065 91.75429925 20.57548973 73.40292036 4.625 46.125 C-2.22584729 33.71047519 -5.27520761 20.77798348 -2.31640625 6.76171875 C-1.63495124 4.4565097 -0.89971224 2.22785887 0 0 Z " fill="#26449C" transform="translate(205,429)"/>
<path d="M0 0 C3.39914975 1.13304992 4.05254451 2.12518475 6 5 C5.67 5.66 5.34 6.32 5 7 C3.02 5.35 1.04 3.7 -1 2 C-0.67 1.34 -0.34 0.68 0 0 Z " fill="#3D57A6" transform="translate(338,500)"/>
</svg>
