<?xml version="1.0" encoding="UTF-8"?>
<svg version="1.1" xmlns="http://www.w3.org/2000/svg" width="800" height="800">
<path d="M0 0 C0.68964844 0.68191406 1.37929688 1.36382812 2.08984375 2.06640625 C3.92251154 3.67168112 3.92251154 3.67168112 5.91821289 3.17578125 C8.28614212 2.36049968 10.20608482 1.30105829 12.34375 -0.00390625 C28.77486312 -9.83138588 45.30334409 -17.40837456 64.0625 -21.5625 C65.00351562 -21.78679687 65.94453125 -22.01109375 66.9140625 -22.2421875 C88.9659989 -26.77681104 111.62282519 -23.231771 130.69140625 -11.2109375 C148.01164086 0.83047767 157.35994403 19.58945812 161.15234375 39.96875 C162.2450115 46.80189002 162.40734878 53.52780138 162.375 60.4375 C162.36936035 61.70916016 162.3637207 62.98082031 162.35791016 64.29101562 C161.57166007 125.91433908 124.89653743 181.29334382 82.3671875 223.29296875 C78.99447405 226.4313072 75.45239202 229.32748281 71.8515625 232.19921875 C70.07051742 233.62854485 68.31230181 235.08711957 66.5859375 236.58203125 C14.44936853 281.37428478 -54.98355105 282.51305122 -120.13964844 277.85595703 C-145.27170899 275.82668686 -169.28433089 269.53734194 -191.9375 258.4375 C-192.94103516 257.94612549 -192.94103516 257.94612549 -193.96484375 257.44482422 C-220.80649888 244.11036832 -245.86638734 224.01047062 -256.9375 195.4375 C-257.27652344 194.59445312 -257.61554688 193.75140625 -257.96484375 192.8828125 C-262.62482363 179.09614392 -261.30692301 161.56343715 -255.04345703 148.58496094 C-252.2868191 143.20944808 -249.36900418 138.0645055 -245.36328125 133.51171875 C-242.60321793 130.01386073 -241.4197368 126.92874166 -240.0625 122.75 C-236.03484066 111.3584824 -229.84971644 102.93987055 -221.5859375 94.26171875 C-217.44775624 89.84887944 -213.85059916 85.67808717 -211.1875 80.1875 C-204.55146944 67.78904291 -193.83562665 59.04720903 -181.1875 53.1875 C-177.10190351 51.04423627 -174.96582314 47.97114302 -172.5 44.1875 C-163.11561994 29.79865623 -149.18127158 21.60163494 -132.546875 17.84765625 C-130.19400013 17.47781813 -128.05923703 17.43290361 -125.6875 17.4375 C-120.37828723 16.02170993 -118.95795571 12.94160197 -115.99609375 8.484375 C-105.20736373 -7.4837643 -87.93915761 -19.61366529 -68.9375 -23.5625 C-68.26332031 -23.70300781 -67.58914063 -23.84351563 -66.89453125 -23.98828125 C-41.71875474 -27.90871174 -18.04195033 -16.84110623 0 0 Z M-105 17.3125 C-119.03466823 35.81210101 -126.79545105 57.64592108 -129.9375 80.4375 C-130.06898438 81.33984375 -130.20046875 82.2421875 -130.3359375 83.171875 C-135.21021193 124.5373391 -124.93530804 169.73601253 -105.9375 206.4375 C-105.6075 206.4375 -105.2775 206.4375 -104.9375 206.4375 C-104.92291748 205.68879639 -104.90833496 204.94009277 -104.89331055 204.16870117 C-103.38912416 134.75820634 -72.45090426 74.89022297 -22.80615234 27.17919922 C-19.37338055 23.97964422 -15.77573424 21.02197355 -12.07421875 18.13671875 C-10.2209627 16.6629228 -8.56672803 15.15108935 -6.9375 13.4375 C-18.04091892 1.18874273 -34.14417796 -8.7874356 -50.95703125 -9.8828125 C-73.74119169 -10.77392863 -90.93612744 0.1554656 -105 17.3125 Z M16.0625 16.4375 C17.35084239 20.13448252 19.13544624 23.23335943 21.28564453 26.49609375 C51.68597024 72.71853927 59.79111018 132.09828901 48.8671875 185.80932617 C44.54955776 205.49320112 37.14381003 223.63968873 25.62890625 240.1796875 C24.05488673 242.33405964 24.05488673 242.33405964 23.0625 244.4375 C27.85331778 243.03834679 31.95072501 240.96254575 36.1875 238.375 C37.16928223 237.77945313 37.16928223 237.77945313 38.17089844 237.171875 C44.43501368 233.31047581 50.29449069 229.00550737 56.0625 224.4375 C56.94035156 223.75300781 57.81820312 223.06851563 58.72265625 222.36328125 C69.61684462 213.68322837 80.20422833 204.21270974 89.0625 193.4375 C89.86558594 192.52226562 90.66867187 191.60703125 91.49609375 190.6640625 C102.88039651 177.65254913 112.53452916 163.45913593 121.0625 148.4375 C121.57224365 147.55360596 121.57224365 147.55360596 122.09228516 146.65185547 C140.47760138 114.58526137 153.87876164 72.30718492 144.02734375 35.578125 C139.38617426 20.18655046 131.00487925 7.27427047 116.97265625 -1.09375 C83.97002458 -17.75011175 44.59693822 -2.58545881 16.0625 16.4375 Z M-22.3125 48.5625 C-28.94313711 55.24001417 -35.33414614 61.863169 -40.9375 69.4375 C-41.41171387 70.06237305 -41.88592773 70.68724609 -42.37451172 71.33105469 C-50.85298032 82.51940534 -58.2609782 94.09157453 -64.9375 106.4375 C-65.30713867 107.12021973 -65.67677734 107.80293945 -66.05761719 108.50634766 C-84.47736343 142.96061034 -97.57352615 185.36124355 -85.8359375 224.0703125 C-83.39311678 230.86293012 -80.32059778 236.71330513 -75.9375 242.4375 C-75.46054687 243.12457031 -74.98359375 243.81164062 -74.4921875 244.51953125 C-67.26192803 254.02060086 -54.42290498 258.71314965 -42.9375 260.4375 C-26.46500549 262.24270488 -11.34791579 256.25232949 1.5625 246.4375 C27.2896146 224.44851316 36.78837197 189.02147421 39.8125 156.5625 C39.92157248 154.52204652 40.00385072 152.48002478 40.0625 150.4375 C40.10246094 149.18839844 40.14242187 147.93929687 40.18359375 146.65234375 C41.07169665 104.73589365 30.55108457 58.80756795 4.0625 25.4375 C-3.16179699 25.4375 -17.5314489 43.79745986 -22.3125 48.5625 Z M-153.9375 43.4375 C-154.54335938 43.92605469 -155.14921875 44.41460937 -155.7734375 44.91796875 C-167.43975043 55.1853799 -172.3081908 72.54742428 -173.9375 87.4375 C-176.33196805 134.33919486 -158.09052045 178.23188747 -126.88232422 213.04614258 C-121.10868279 219.37960901 -115.04935345 225.43204246 -108.9375 231.4375 C-108.9375 227.38439917 -110.86720682 224.82442073 -112.875 221.4375 C-126.62104173 197.4501117 -136.0280137 171.68293751 -140.9375 144.4375 C-141.09976074 143.54160156 -141.26202148 142.64570313 -141.42919922 141.72265625 C-147.30240344 107.53806203 -146.79441744 68.05836141 -131.70483398 36.25878906 C-130.80807956 34.45970586 -130.80807956 34.45970586 -130.9375 32.4375 C-140.15330464 32.4375 -147.22732688 37.56923998 -153.9375 43.4375 Z M-191.7421875 77.1875 C-202.49852643 88.21179043 -206.22856974 101.81985672 -206.25439453 116.72363281 C-205.8582868 142.6515733 -192.33414964 167.30149078 -176.9375 187.4375 C-175.93589844 188.75814453 -175.93589844 188.75814453 -174.9140625 190.10546875 C-169.63071947 196.88755602 -163.84908358 203.20508675 -157.9375 209.4375 C-157.46296387 209.94071777 -156.98842773 210.44393555 -156.49951172 210.96240234 C-148.91028261 218.95796768 -140.74718665 225.82609771 -131.9375 232.4375 C-131.05835938 233.10394531 -130.17921875 233.77039063 -129.2734375 234.45703125 C-127.50198604 235.79344428 -125.72123949 237.11753278 -123.9375 238.4375 C-123.2775 238.1075 -122.6175 237.7775 -121.9375 237.4375 C-122.97197266 236.43783203 -122.97197266 236.43783203 -124.02734375 235.41796875 C-130.48164339 229.08762 -136.34930948 222.55951205 -141.9375 215.4375 C-142.71609375 214.48746094 -143.4946875 213.53742188 -144.296875 212.55859375 C-177.06747404 171.69970992 -190.20567009 124.01232476 -184.9375 72.4375 C-187.45060315 72.4375 -189.9836624 75.62436658 -191.7421875 77.1875 Z M-219.9375 113.4375 C-229.02487662 130.66124871 -233.24521759 144.93427191 -227.3828125 164.55078125 C-214.52491892 200.99388484 -180.4773338 225.53267134 -147.75 243 C-146.94771973 243.43014404 -146.14543945 243.86028809 -145.31884766 244.3034668 C-141.55332907 246.26938896 -138.22146881 247.94814885 -133.9375 248.4375 C-137.50005024 244.7223638 -141.26984106 241.54431023 -145.375 238.4375 C-155.77295307 230.408455 -165.59817451 221.61495988 -173.9375 211.4375 C-174.66839844 210.59445312 -175.39929688 209.75140625 -176.15234375 208.8828125 C-199.59831723 181.5476965 -216.5273003 149.7807745 -218.9375 113.4375 C-219.2675 113.4375 -219.5975 113.4375 -219.9375 113.4375 Z M-243.9375 157.4375 C-248.33383364 172.43213794 -247.99025436 184.97871754 -240.75 199.0625 C-222.49890036 231.09737991 -186.90754441 249.1673406 -152.6171875 258.9765625 C-149.90086549 259.44380156 -148.52753626 259.18490455 -145.9375 258.4375 C-146.77390015 258.01621826 -146.77390015 258.01621826 -147.62719727 257.58642578 C-159.5688252 251.53894497 -171.08866804 245.29861047 -181.9375 237.4375 C-182.49872559 237.03176758 -183.05995117 236.62603516 -183.63818359 236.20800781 C-191.92050279 230.15877265 -199.51856811 223.5089888 -206.9375 216.4375 C-207.79085937 215.64859375 -208.64421875 214.8596875 -209.5234375 214.046875 C-225.21001075 199.10256862 -237.92277087 178.90085955 -241.9375 157.4375 C-242.5975 157.4375 -243.2575 157.4375 -243.9375 157.4375 Z M-121.9375 238.4375 C-121.6075 239.0975 -121.2775 239.7575 -120.9375 240.4375 C-120.2775 240.1075 -119.6175 239.7775 -118.9375 239.4375 C-119.9275 239.1075 -120.9175 238.7775 -121.9375 238.4375 Z " fill="#FFFFFF" transform="translate(448.9375,272.5625)"/>
</svg>
